<svg xmlns="http://www.w3.org/2000/svg" xmlns:xlink="http://www.w3.org/1999/xlink" viewBox="0 0 512 512">
	<defs>
		<radialGradient id="gradient">
			<stop offset="00%" stop-color="#F7CA00"/>
			<stop offset="80%" stop-color="#F7C000"/>
			<stop offset="100%" stop-color="#F7A200"/>
		</radialGradient>
	</defs>
  
	<g id="Logo">
		<circle cx="256" cy="256" r="256" fill="#000000"/>
		<circle cx="256" cy="256" r="200" fill="url(#gradient)"/>
		<circle cx="256" cy="256" r="16" fill="#000000"/>

		<path d="M 172 160, A 120 120 0 0 0 172 352" fill="transparent" stroke="#000000" stroke-width="16" stroke-linecap="round" />
		<path d="M 200 192, A 80 80 0 0 0 200 320"   fill="transparent" stroke="#000000" stroke-width="16" stroke-linecap="round" />
		<path d="M 224 224, A 40 40 0 0 0 224 288"   fill="transparent" stroke="#000000" stroke-width="16" stroke-linecap="round" />
		<path d="M 288 224, A 40 40 0 0 1 288 288"   fill="transparent" stroke="#000000" stroke-width="16" stroke-linecap="round" />
		<path d="M 312 192, A 80 80 0 0 1 312 320"   fill="transparent" stroke="#000000" stroke-width="16" stroke-linecap="round" />
		<path d="M 340 160, A 120 120 0 0 1 340 352" fill="transparent" stroke="#000000" stroke-width="16" stroke-linecap="round" />
	</g>
</svg>